<?xml version="1.0" encoding="utf-8"?>
<!-- Generator: Adobe Illustrator 24.2.3, SVG Export Plug-In . SVG Version: 6.00 Build 0)  -->
<svg version="1.1" id="Layer_1" xmlns="http://www.w3.org/2000/svg" xmlns:xlink="http://www.w3.org/1999/xlink" x="0px" y="0px"
	 viewBox="0 0 44 30" style="enable-background:new 0 0 44 30;" xml:space="preserve">
<style type="text/css">
	.st0{fill:#008000;}
	.st1{fill:#FFFFFF;}
</style>
<rect y="1.5" class="st0" width="44" height="27"/>
<path class="st1" d="M21.1,11c-1.2-2.3-3.6-3.8-6.2-3.7c-4.1-0.1-7.4,3.1-7.5,7.2c0,0.2,0,0.4,0,0.5c0,3.9,3.2,7.1,7.1,7.1
	c0.1,0,0.2,0,0.2,0c3.9,0,6.4-3.6,6.4-3.6c-1.2,1.2-2.9,2-4.6,2.1c-3,0.1-5.5-2.3-5.6-5.3c0-0.1,0-0.2,0-0.3c0-3.8,2.5-6.2,5.6-6.2
	C18.2,8.8,20,9.6,21.1,11z"/>
<polygon class="st1" points="23.5,11.5 23.5,13.8 20.9,14.7 23.5,15.5 23.5,18.1 25,15.9 27.5,17 26.2,14.8 27.5,12.6 25.1,13.3 "/>
</svg>
