<svg xmlns="http://www.w3.org/2000/svg" viewBox="0 0 48 48" width="48px" height="48px"><path fill="#f5f5f5" d="M2,10h44v30H2V10z"/><path fill="#263238" d="M9.4 17.6H17.4V18.3H9.4z" transform="rotate(-57.016 13.39 17.965)"/><path fill="#263238" d="M9.9 30.1H10.700000000000001V38.1H9.9z" transform="rotate(-32.934 10.278 34.086)"/><path fill="#263238" d="M35.8 12.9H36.599999999999994V21H35.8z" transform="rotate(-33.112 36.177 16.925)"/><path fill="#263238" d="M7.8 16.6H15.8V17.3H7.8z" transform="rotate(-57.016 11.833 16.951)"/><path fill="#263238" d="M35.4 17.9H36.1V21.599999999999998H35.4z" transform="rotate(-32.965 35.796 19.773)"/><path fill="#263238" d="M36.9 31.9H40.6V32.6H36.9z" transform="rotate(-57.016 38.797 32.27)"/><path fill="#263238" d="M12.6 33H13.299999999999999V36.7H12.6z" transform="rotate(-33.039 13.01 34.891)"/><path fill="#263238" d="M38.5 15.9H39.2V19.6H38.5z" transform="rotate(-33.238 38.923 17.743)"/><path fill="#263238" d="M33.8 29.9H37.5V30.599999999999998H33.8z" transform="rotate(-57.016 35.684 30.243)"/><path fill="#263238" d="M35.4 30.9H39.1V31.7H35.4z" transform="rotate(-56.886 37.242 31.256)"/><path fill="#263238" d="M33.1 14.3H33.800000000000004V18H33.1z" transform="rotate(-33.217 33.437 16.136)"/><path fill="#263238" d="M34.6 35.5H38.300000000000004V36.2H34.6z" transform="rotate(-57.344 36.44 35.908)"/><path fill="#263238" d="M10.3 29.4H11.100000000000001V33.1H10.3z" transform="rotate(-32.765 10.648 31.258)"/><path fill="#263238" d="M36.2 12.3H36.900000000000006V16H36.2z" transform="rotate(-33.269 36.548 14.107)"/><path fill="#263238" d="M31.5 33.5H35.2V34.3H31.5z" transform="rotate(-56.886 33.312 33.877)"/><path fill="#263238" d="M33 34.5H36.7V35.3H33z" transform="rotate(-57.222 34.878 34.889)"/><path fill="#263238" d="M6.2 15.6H14.3V16.4H6.2z" transform="rotate(-56.845 10.264 15.938)"/><path fill="#263238" d="M13 28H13.7V36H13z" transform="rotate(-32.948 13.39 32.058)"/><path fill="#f44336" d="M20,29c2.2,0,4-1.8,4-4s1.8-4,4-4s4,1.8,4,4c0-4.4-3.6-8-8-8s-8,3.6-8,8C16,27.2,17.8,29,20,29z"/><path fill="#3949ab" d="M28,21c-2.2,0-4,1.8-4,4s-1.8,4-4,4s-4-1.8-4-4c0,4.4,3.6,8,8,8s8-3.6,8-8C32,22.8,30.2,21,28,21z"/></svg>