<?xml version="1.0" encoding="iso-8859-1"?>
<!-- Generator: Adobe Illustrator 19.0.0, SVG Export Plug-In . SVG Version: 6.00 Build 0)  -->
<svg version="1.1" id="Capa_1" xmlns="http://www.w3.org/2000/svg" xmlns:xlink="http://www.w3.org/1999/xlink" x="0px" y="0px"
	 viewBox="0 0 511.999 511.999" style="enable-background:new 0 0 511.999 511.999;" xml:space="preserve" fill="#e56c17">
<g>
	<g>
		<path d="M495.968,236.99v-89.927c0-21.815-17.749-39.564-39.564-39.564h-1.635l-2.722-25.409
			c-0.441-4.121-2.461-7.823-5.688-10.425c-3.226-2.602-7.275-3.792-11.393-3.35l-8.29,0.888l-4.079-19.995
			c-1.711-8.383-9.921-13.815-18.305-12.102L59.206,107.499H39.564C17.748,107.499,0,125.248,0,147.063v288.581
			c0,21.815,17.748,39.564,39.564,39.564h416.839c21.815,0,39.564-17.749,39.564-39.564v-89.926
			c9.308-3.139,16.032-11.946,16.032-22.3V259.29C512,248.936,505.276,240.13,495.968,236.99z M436.564,83.229
			c0.053-0.003,0.211-0.022,0.379,0.111c0.166,0.135,0.184,0.295,0.189,0.347l2.551,23.812H210.006L436.564,83.229z M407.291,51.804
			c0.276-0.052,0.553,0.124,0.609,0.402l3.795,18.601L206.223,92.819L407.291,51.804z M480.968,435.644
			c0,13.545-11.02,24.565-24.565,24.565H39.564C26.02,460.209,15,449.189,15,435.644v-0.517h385.29c4.143,0,7.5-3.357,7.5-7.5
			s-3.357-7.5-7.5-7.5H15V162.58h385.29c4.143,0,7.5-3.357,7.5-7.5s-3.357-7.5-7.5-7.5H15v-0.517
			c0-13.545,11.02-24.564,24.564-24.564H448c0.007,0,0.014,0.001,0.021,0.001c0.006,0,0.012-0.001,0.018-0.001h8.365
			c13.545,0,24.564,11.02,24.564,24.564v88.694h-25.081V155.08c0-4.143-3.357-7.5-7.5-7.5h-16.034c-4.143,0-7.5,3.357-7.5,7.5
			s3.357,7.5,7.5,7.5h8.534v73.178h-64.645c-12.976,0-23.532,10.557-23.532,23.532v64.129c0,12.976,10.557,23.532,23.532,23.532
			h64.645v73.177h-8.534c-4.143,0-7.5,3.357-7.5,7.5s3.357,7.5,7.5,7.5h16.034c4.143,0,7.5-3.357,7.5-7.5v-80.677h25.081V435.644z
			 M497,323.419L497,323.419c0,4.702-3.822,8.526-8.523,8.532c-0.003,0-0.006,0-0.01,0c-0.007,0-0.013,0.001-0.019,0.001H376.242
			c-4.705,0-8.532-3.827-8.532-8.532v-64.13c0-4.705,3.827-8.532,8.532-8.532h112.187c0.013,0,0.026,0.002,0.039,0.002
			c0.007,0,0.013-0.001,0.019-0.001c4.696,0.011,8.513,3.833,8.513,8.531V323.419z"/>
	</g>
</g>
<g>
	<g>
		<path d="M408.307,267.822c-12.976,0-23.532,10.557-23.532,23.532c0,12.975,10.557,23.532,23.532,23.532
			c12.975,0,23.532-10.557,23.532-23.532C431.839,278.379,421.282,267.822,408.307,267.822z M408.307,299.886
			c-4.705,0-8.532-3.827-8.532-8.532s3.827-8.532,8.532-8.532s8.532,3.827,8.532,8.532S413.012,299.886,408.307,299.886z"/>
	</g>
</g>
<g>
</g>
<g>
</g>
<g>
</g>
<g>
</g>
<g>
</g>
<g>
</g>
<g>
</g>
<g>
</g>
<g>
</g>
<g>
</g>
<g>
</g>
<g>
</g>
<g>
</g>
<g>
</g>
<g>
</g>
</svg>
